<mxfile host="65bd71144e">
    <diagram id="h2ausnnGMONv08gCMSYq" name="Página-1">
        <mxGraphModel dx="958" dy="483" grid="0" gridSize="10" guides="1" tooltips="1" connect="1" arrows="1" fold="1" page="0" pageScale="1" pageWidth="827" pageHeight="1169" math="0" shadow="0">
            <root>
                <mxCell id="0"/>
                <mxCell id="1" parent="0"/>
                <mxCell id="-Rs1106N0qgLvqjzAEud-1" value="&lt;div style=&quot;text-align: left;&quot;&gt;&lt;br&gt;&lt;/div&gt;" style="rounded=0;whiteSpace=wrap;html=1;hachureGap=4;gradientColor=none;fillColor=default;" parent="1" vertex="1">
                    <mxGeometry x="131" y="140" width="148" height="185" as="geometry"/>
                </mxCell>
                <mxCell id="-Rs1106N0qgLvqjzAEud-7" value="" style="edgeStyle=none;orthogonalLoop=1;jettySize=auto;html=1;rounded=0;endArrow=block;startSize=14;endSize=14;sourcePerimeterSpacing=8;targetPerimeterSpacing=8;curved=1;entryX=0;entryY=1;entryDx=0;entryDy=0;endFill=0;exitX=0.625;exitY=-0.1;exitDx=0;exitDy=0;exitPerimeter=0;" parent="1" source="2NP4AydjIx5wnO26K9SO-3" target="-Rs1106N0qgLvqjzAEud-1" edge="1">
                    <mxGeometry width="120" relative="1" as="geometry">
                        <mxPoint x="44" y="394" as="sourcePoint"/>
                        <mxPoint x="85" y="285" as="targetPoint"/>
                        <Array as="points"/>
                    </mxGeometry>
                </mxCell>
                <mxCell id="-Rs1106N0qgLvqjzAEud-8" value="" style="edgeStyle=none;orthogonalLoop=1;jettySize=auto;html=1;rounded=0;endArrow=none;startSize=14;endSize=14;sourcePerimeterSpacing=8;targetPerimeterSpacing=8;curved=1;endFill=0;exitX=0.005;exitY=0.221;exitDx=0;exitDy=0;exitPerimeter=0;" parent="1" source="-Rs1106N0qgLvqjzAEud-1" edge="1">
                    <mxGeometry width="120" relative="1" as="geometry">
                        <mxPoint x="107" y="182" as="sourcePoint"/>
                        <mxPoint x="279" y="180" as="targetPoint"/>
                        <Array as="points"/>
                    </mxGeometry>
                </mxCell>
                <mxCell id="-Rs1106N0qgLvqjzAEud-9" value="Person" style="text;strokeColor=none;fillColor=none;html=1;align=center;verticalAlign=middle;whiteSpace=wrap;rounded=0;hachureGap=4;" parent="1" vertex="1">
                    <mxGeometry x="133" y="142" width="144" height="37" as="geometry"/>
                </mxCell>
                <mxCell id="-Rs1106N0qgLvqjzAEud-10" value="" style="edgeStyle=none;orthogonalLoop=1;jettySize=auto;html=1;rounded=0;endArrow=none;endFill=0;startSize=14;endSize=14;sourcePerimeterSpacing=8;targetPerimeterSpacing=8;curved=1;exitX=-0.003;exitY=0.581;exitDx=0;exitDy=0;exitPerimeter=0;entryX=0.996;entryY=0.581;entryDx=0;entryDy=0;entryPerimeter=0;" parent="1" source="-Rs1106N0qgLvqjzAEud-1" target="-Rs1106N0qgLvqjzAEud-1" edge="1">
                    <mxGeometry width="120" relative="1" as="geometry">
                        <mxPoint x="131" y="254" as="sourcePoint"/>
                        <mxPoint x="251" y="254" as="targetPoint"/>
                        <Array as="points"/>
                    </mxGeometry>
                </mxCell>
                <mxCell id="2NP4AydjIx5wnO26K9SO-1" value="" style="rounded=0;whiteSpace=wrap;html=1;hachureGap=4;gradientColor=none;fillColor=default;" parent="1" vertex="1">
                    <mxGeometry x="-17.000000000000004" y="399" width="148" height="185" as="geometry"/>
                </mxCell>
                <mxCell id="2NP4AydjIx5wnO26K9SO-2" value="" style="edgeStyle=none;orthogonalLoop=1;jettySize=auto;html=1;rounded=0;endArrow=none;startSize=14;endSize=14;sourcePerimeterSpacing=8;targetPerimeterSpacing=8;curved=1;endFill=0;exitX=0.005;exitY=0.221;exitDx=0;exitDy=0;exitPerimeter=0;" parent="1" source="2NP4AydjIx5wnO26K9SO-1" edge="1">
                    <mxGeometry width="120" relative="1" as="geometry">
                        <mxPoint x="-41" y="441" as="sourcePoint"/>
                        <mxPoint x="131" y="439" as="targetPoint"/>
                        <Array as="points"/>
                    </mxGeometry>
                </mxCell>
                <mxCell id="2NP4AydjIx5wnO26K9SO-3" value="Passanger" style="text;strokeColor=none;fillColor=none;html=1;align=center;verticalAlign=middle;whiteSpace=wrap;rounded=0;hachureGap=4;" parent="1" vertex="1">
                    <mxGeometry x="-15.000000000000002" y="401" width="144" height="37" as="geometry"/>
                </mxCell>
                <mxCell id="2NP4AydjIx5wnO26K9SO-4" value="" style="edgeStyle=none;orthogonalLoop=1;jettySize=auto;html=1;rounded=0;endArrow=none;endFill=0;startSize=14;endSize=14;sourcePerimeterSpacing=8;targetPerimeterSpacing=8;curved=1;exitX=-0.003;exitY=0.581;exitDx=0;exitDy=0;exitPerimeter=0;entryX=0.996;entryY=0.581;entryDx=0;entryDy=0;entryPerimeter=0;" parent="1" source="2NP4AydjIx5wnO26K9SO-1" target="2NP4AydjIx5wnO26K9SO-1" edge="1">
                    <mxGeometry width="120" relative="1" as="geometry">
                        <mxPoint x="-17.000000000000004" y="513" as="sourcePoint"/>
                        <mxPoint x="103" y="513" as="targetPoint"/>
                        <Array as="points"/>
                    </mxGeometry>
                </mxCell>
                <mxCell id="2NP4AydjIx5wnO26K9SO-5" value="" style="rounded=0;whiteSpace=wrap;html=1;hachureGap=4;gradientColor=none;fillColor=default;" parent="1" vertex="1">
                    <mxGeometry x="279.44" y="397" width="148" height="185" as="geometry"/>
                </mxCell>
                <mxCell id="2NP4AydjIx5wnO26K9SO-6" value="" style="edgeStyle=none;orthogonalLoop=1;jettySize=auto;html=1;rounded=0;endArrow=none;startSize=14;endSize=14;targetPerimeterSpacing=8;curved=1;endFill=0;exitX=0.005;exitY=0.221;exitDx=0;exitDy=0;exitPerimeter=0;startArrow=none;" parent="1" source="2NP4AydjIx5wnO26K9SO-16" edge="1">
                    <mxGeometry width="120" relative="1" as="geometry">
                        <mxPoint x="255.44" y="439" as="sourcePoint"/>
                        <mxPoint x="427.44" y="437" as="targetPoint"/>
                        <Array as="points"/>
                    </mxGeometry>
                </mxCell>
                <mxCell id="2NP4AydjIx5wnO26K9SO-7" value="Driver" style="text;strokeColor=none;fillColor=none;html=1;align=center;verticalAlign=middle;whiteSpace=wrap;rounded=0;hachureGap=4;" parent="1" vertex="1">
                    <mxGeometry x="281.44" y="399" width="144" height="37" as="geometry"/>
                </mxCell>
                <mxCell id="2NP4AydjIx5wnO26K9SO-8" value="" style="edgeStyle=none;orthogonalLoop=1;jettySize=auto;html=1;rounded=0;endArrow=none;endFill=0;startSize=14;endSize=14;sourcePerimeterSpacing=8;targetPerimeterSpacing=8;curved=1;exitX=-0.003;exitY=0.581;exitDx=0;exitDy=0;exitPerimeter=0;entryX=0.996;entryY=0.581;entryDx=0;entryDy=0;entryPerimeter=0;" parent="1" source="2NP4AydjIx5wnO26K9SO-5" target="2NP4AydjIx5wnO26K9SO-5" edge="1">
                    <mxGeometry width="120" relative="1" as="geometry">
                        <mxPoint x="279.44" y="511" as="sourcePoint"/>
                        <mxPoint x="399.44" y="511" as="targetPoint"/>
                        <Array as="points"/>
                    </mxGeometry>
                </mxCell>
                <mxCell id="2NP4AydjIx5wnO26K9SO-9" value="" style="edgeStyle=none;orthogonalLoop=1;jettySize=auto;html=1;rounded=0;endArrow=block;startSize=14;endSize=14;sourcePerimeterSpacing=8;targetPerimeterSpacing=8;curved=1;entryX=0;entryY=1;entryDx=0;entryDy=0;endFill=0;exitX=0.38;exitY=0.015;exitDx=0;exitDy=0;exitPerimeter=0;" parent="1" source="2NP4AydjIx5wnO26K9SO-7" edge="1">
                    <mxGeometry width="120" relative="1" as="geometry">
                        <mxPoint x="326" y="393" as="sourcePoint"/>
                        <mxPoint x="279.44" y="324.9999999999999" as="targetPoint"/>
                        <Array as="points"/>
                    </mxGeometry>
                </mxCell>
                <mxCell id="2NP4AydjIx5wnO26K9SO-10" value="Puede ser que sea con un constructor que indiwue q tipo de conductori seria cada uno " style="text;strokeColor=none;fillColor=none;align=left;verticalAlign=middle;spacingLeft=4;spacingRight=4;overflow=hidden;points=[[0,0.5],[1,0.5]];portConstraint=eastwest;rotatable=0;" parent="1" vertex="1">
                    <mxGeometry x="-44" y="847" width="542" height="124" as="geometry"/>
                </mxCell>
                <mxCell id="2NP4AydjIx5wnO26K9SO-11" value="&lt;div style=&quot;&quot;&gt;&lt;span style=&quot;background-color: initial;&quot;&gt;+ Name : string&lt;/span&gt;&lt;/div&gt;&lt;div style=&quot;&quot;&gt;&lt;span style=&quot;background-color: initial;&quot;&gt;+ Surname : string&lt;/span&gt;&lt;/div&gt;&lt;div style=&quot;&quot;&gt;&lt;span style=&quot;background-color: initial;&quot;&gt;+ Id : int&lt;/span&gt;&lt;/div&gt;&lt;div style=&quot;&quot;&gt;&lt;span style=&quot;background-color: initial;&quot;&gt;+ Rating : Rating&lt;/span&gt;&lt;/div&gt;" style="text;html=1;strokeColor=none;fillColor=none;align=left;verticalAlign=middle;whiteSpace=wrap;rounded=0;" parent="1" vertex="1">
                    <mxGeometry x="131" y="181" width="148" height="66" as="geometry"/>
                </mxCell>
                <mxCell id="2NP4AydjIx5wnO26K9SO-12" value="" style="rounded=0;whiteSpace=wrap;html=1;hachureGap=4;gradientColor=none;fillColor=default;" parent="1" vertex="1">
                    <mxGeometry x="131.44" y="626" width="148" height="185" as="geometry"/>
                </mxCell>
                <mxCell id="2NP4AydjIx5wnO26K9SO-13" value="" style="edgeStyle=none;orthogonalLoop=1;jettySize=auto;html=1;rounded=0;endArrow=none;startSize=14;endSize=14;sourcePerimeterSpacing=8;targetPerimeterSpacing=8;curved=1;endFill=0;exitX=0.005;exitY=0.221;exitDx=0;exitDy=0;exitPerimeter=0;" parent="1" source="2NP4AydjIx5wnO26K9SO-12" edge="1">
                    <mxGeometry width="120" relative="1" as="geometry">
                        <mxPoint x="107.44" y="668" as="sourcePoint"/>
                        <mxPoint x="279.44000000000005" y="666" as="targetPoint"/>
                        <Array as="points"/>
                    </mxGeometry>
                </mxCell>
                <mxCell id="2NP4AydjIx5wnO26K9SO-14" value="Rating" style="text;strokeColor=none;fillColor=none;html=1;align=center;verticalAlign=middle;whiteSpace=wrap;rounded=0;hachureGap=4;" parent="1" vertex="1">
                    <mxGeometry x="133.44" y="628" width="144" height="37" as="geometry"/>
                </mxCell>
                <mxCell id="2NP4AydjIx5wnO26K9SO-15" value="" style="edgeStyle=none;orthogonalLoop=1;jettySize=auto;html=1;rounded=0;endArrow=none;endFill=0;startSize=14;endSize=14;sourcePerimeterSpacing=8;targetPerimeterSpacing=8;curved=1;exitX=-0.003;exitY=0.581;exitDx=0;exitDy=0;exitPerimeter=0;entryX=0.996;entryY=0.581;entryDx=0;entryDy=0;entryPerimeter=0;" parent="1" source="2NP4AydjIx5wnO26K9SO-12" target="2NP4AydjIx5wnO26K9SO-12" edge="1">
                    <mxGeometry width="120" relative="1" as="geometry">
                        <mxPoint x="131.44" y="740" as="sourcePoint"/>
                        <mxPoint x="251.44" y="740" as="targetPoint"/>
                        <Array as="points"/>
                    </mxGeometry>
                </mxCell>
                <mxCell id="2NP4AydjIx5wnO26K9SO-16" value="&lt;div style=&quot;&quot;&gt;&lt;br&gt;&lt;/div&gt;&lt;div style=&quot;&quot;&gt;&lt;br&gt;&lt;/div&gt;&lt;div style=&quot;&quot;&gt;+Car : sting&amp;nbsp;&lt;/div&gt;&lt;div style=&quot;&quot;&gt;+Capacity : int&lt;/div&gt;&lt;div style=&quot;&quot;&gt;+Free : bool&amp;nbsp;&lt;/div&gt;&lt;div style=&quot;&quot;&gt;+Biograpy : string&lt;/div&gt;&lt;div style=&quot;&quot;&gt;&lt;br&gt;&lt;/div&gt;" style="text;html=1;strokeColor=none;fillColor=none;align=left;verticalAlign=middle;whiteSpace=wrap;rounded=0;" parent="1" vertex="1">
                    <mxGeometry x="279" y="419" width="148.44" height="85" as="geometry"/>
                </mxCell>
                <mxCell id="2NP4AydjIx5wnO26K9SO-17" value="" style="edgeStyle=none;orthogonalLoop=1;jettySize=auto;html=1;rounded=0;endArrow=none;startSize=14;endSize=14;sourcePerimeterSpacing=8;curved=1;endFill=0;exitX=0.005;exitY=0.221;exitDx=0;exitDy=0;exitPerimeter=0;" parent="1" source="2NP4AydjIx5wnO26K9SO-5" target="2NP4AydjIx5wnO26K9SO-16" edge="1">
                    <mxGeometry width="120" relative="1" as="geometry">
                        <mxPoint x="280.18000000000006" y="437.885" as="sourcePoint"/>
                        <mxPoint x="427.44000000000005" y="437" as="targetPoint"/>
                        <Array as="points"/>
                    </mxGeometry>
                </mxCell>
                <mxCell id="2NP4AydjIx5wnO26K9SO-18" value="" style="edgeStyle=none;orthogonalLoop=1;jettySize=auto;html=1;rounded=0;endArrow=open;startSize=14;endSize=14;sourcePerimeterSpacing=8;targetPerimeterSpacing=8;curved=1;endFill=0;exitX=0.625;exitY=-0.1;exitDx=0;exitDy=0;exitPerimeter=0;" parent="1" edge="1">
                    <mxGeometry width="120" relative="1" as="geometry">
                        <mxPoint x="117" y="586.3" as="sourcePoint"/>
                        <mxPoint x="148" y="625" as="targetPoint"/>
                        <Array as="points"/>
                    </mxGeometry>
                </mxCell>
                <mxCell id="2NP4AydjIx5wnO26K9SO-19" value="" style="edgeStyle=none;orthogonalLoop=1;jettySize=auto;html=1;rounded=0;endArrow=open;startSize=14;endSize=14;sourcePerimeterSpacing=8;targetPerimeterSpacing=8;curved=1;endFill=0;exitX=0.625;exitY=-0.1;exitDx=0;exitDy=0;exitPerimeter=0;entryX=1;entryY=0;entryDx=0;entryDy=0;" parent="1" target="2NP4AydjIx5wnO26K9SO-14" edge="1">
                    <mxGeometry width="120" relative="1" as="geometry">
                        <mxPoint x="317" y="582" as="sourcePoint"/>
                        <mxPoint x="348" y="620.7" as="targetPoint"/>
                        <Array as="points"/>
                    </mxGeometry>
                </mxCell>
                <mxCell id="00fC73_3xEAyOy2aGItD-5" value="&lt;div style=&quot;&quot;&gt;&lt;font style=&quot;font-size: 10px;&quot;&gt;+Call (passangers : int) : void&amp;nbsp;&lt;/font&gt;&lt;/div&gt;" style="text;html=1;strokeColor=none;fillColor=none;align=left;verticalAlign=middle;whiteSpace=wrap;rounded=0;" parent="1" vertex="1">
                    <mxGeometry x="-17" y="507" width="148.44" height="76" as="geometry"/>
                </mxCell>
                <mxCell id="00fC73_3xEAyOy2aGItD-8" value="&lt;div style=&quot;font-size: 9px&quot;&gt;&lt;font style=&quot;font-size: 9px&quot;&gt;+ RatingsSum :int&lt;/font&gt;&lt;/div&gt;&lt;div style=&quot;font-size: 9px&quot;&gt;&lt;font style=&quot;font-size: 9px&quot;&gt;+TotalRatings: int&amp;nbsp;&lt;/font&gt;&lt;/div&gt;&lt;div style=&quot;font-size: 9px&quot;&gt;&lt;font style=&quot;font-size: 9px&quot;&gt;+EffectiveRating : double&lt;/font&gt;&lt;/div&gt;" style="text;html=1;strokeColor=none;fillColor=none;align=left;verticalAlign=middle;whiteSpace=wrap;rounded=0;" parent="1" vertex="1">
                    <mxGeometry x="131" y="668" width="150" height="65" as="geometry"/>
                </mxCell>
                <mxCell id="00fC73_3xEAyOy2aGItD-13" value="+AddRating (rating:int) : double" style="text;html=1;strokeColor=none;fillColor=none;align=left;verticalAlign=middle;whiteSpace=wrap;rounded=0;fontSize=10;" parent="1" vertex="1">
                    <mxGeometry x="132" y="735" width="149" height="75" as="geometry"/>
                </mxCell>
                <mxCell id="00fC73_3xEAyOy2aGItD-14" value="&lt;div style=&quot;&quot;&gt;&lt;font style=&quot;font-size: 10px;&quot;&gt;+AceptCall () : void&amp;nbsp;&lt;/font&gt;&lt;/div&gt;" style="text;html=1;strokeColor=none;fillColor=none;align=left;verticalAlign=middle;whiteSpace=wrap;rounded=0;" parent="1" vertex="1">
                    <mxGeometry x="279" y="506" width="148.44" height="76" as="geometry"/>
                </mxCell>
                <mxCell id="00fC73_3xEAyOy2aGItD-16" value="" style="rounded=0;whiteSpace=wrap;html=1;hachureGap=4;gradientColor=none;fillColor=default;" parent="1" vertex="1">
                    <mxGeometry x="369.44" y="630" width="148" height="185" as="geometry"/>
                </mxCell>
                <mxCell id="00fC73_3xEAyOy2aGItD-17" value="" style="edgeStyle=none;orthogonalLoop=1;jettySize=auto;html=1;rounded=0;endArrow=none;startSize=14;endSize=14;targetPerimeterSpacing=8;curved=1;endFill=0;exitX=0.005;exitY=0.221;exitDx=0;exitDy=0;exitPerimeter=0;startArrow=none;" parent="1" edge="1">
                    <mxGeometry width="120" relative="1" as="geometry">
                        <mxPoint x="369.7421999999999" y="670.7850000000001" as="sourcePoint"/>
                        <mxPoint x="517.44" y="670" as="targetPoint"/>
                        <Array as="points"/>
                    </mxGeometry>
                </mxCell>
                <mxCell id="00fC73_3xEAyOy2aGItD-18" value="Info" style="text;strokeColor=none;fillColor=none;html=1;align=center;verticalAlign=middle;whiteSpace=wrap;rounded=0;hachureGap=4;" parent="1" vertex="1">
                    <mxGeometry x="371.44" y="632" width="144" height="37" as="geometry"/>
                </mxCell>
                <mxCell id="00fC73_3xEAyOy2aGItD-19" value="" style="edgeStyle=none;orthogonalLoop=1;jettySize=auto;html=1;rounded=0;endArrow=none;endFill=0;startSize=14;endSize=14;sourcePerimeterSpacing=8;targetPerimeterSpacing=8;curved=1;exitX=-0.003;exitY=0.581;exitDx=0;exitDy=0;exitPerimeter=0;entryX=0.996;entryY=0.581;entryDx=0;entryDy=0;entryPerimeter=0;" parent="1" source="00fC73_3xEAyOy2aGItD-16" target="00fC73_3xEAyOy2aGItD-16" edge="1">
                    <mxGeometry width="120" relative="1" as="geometry">
                        <mxPoint x="369.44" y="744" as="sourcePoint"/>
                        <mxPoint x="489.44000000000005" y="744" as="targetPoint"/>
                        <Array as="points"/>
                    </mxGeometry>
                </mxCell>
                <mxCell id="00fC73_3xEAyOy2aGItD-21" value="" style="edgeStyle=none;orthogonalLoop=1;jettySize=auto;html=1;rounded=0;endArrow=none;startSize=14;endSize=14;curved=1;endFill=0;exitX=0.005;exitY=0.221;exitDx=0;exitDy=0;exitPerimeter=0;startArrow=none;" parent="1" source="00fC73_3xEAyOy2aGItD-23" edge="1">
                    <mxGeometry width="120" relative="1" as="geometry">
                        <mxPoint x="370.18000000000006" y="670.885" as="sourcePoint"/>
                        <mxPoint x="369" y="670.5034871303396" as="targetPoint"/>
                        <Array as="points"/>
                    </mxGeometry>
                </mxCell>
                <mxCell id="00fC73_3xEAyOy2aGItD-22" value="&lt;span style=&quot;font-size: 10px&quot;&gt;+ StartJorney()&lt;/span&gt;" style="text;html=1;strokeColor=none;fillColor=none;align=left;verticalAlign=middle;whiteSpace=wrap;rounded=0;" parent="1" vertex="1">
                    <mxGeometry x="369" y="739" width="148.44" height="76" as="geometry"/>
                </mxCell>
                <mxCell id="00fC73_3xEAyOy2aGItD-23" value="&lt;font style=&quot;font-size: 9px&quot;&gt;+ FreeNormalDrivers : List&amp;lt;Driver&amp;gt;&lt;br&gt;+ BusyNormalDrivers : List&amp;lt;Driver&amp;gt;&lt;br&gt;+ FreePoolDrivers : List&amp;lt;Driver&amp;gt;&lt;br&gt;+ BusyPoolDrivers : List&amp;lt;Driver&amp;gt;&lt;br&gt;&lt;/font&gt;" style="text;html=1;strokeColor=none;fillColor=none;align=left;verticalAlign=middle;whiteSpace=wrap;rounded=0;fontSize=10;" parent="1" vertex="1">
                    <mxGeometry x="369.44" y="672" width="148.56" height="66" as="geometry"/>
                </mxCell>
                <mxCell id="00fC73_3xEAyOy2aGItD-24" value="" style="edgeStyle=none;orthogonalLoop=1;jettySize=auto;html=1;rounded=0;endArrow=none;startSize=14;endSize=14;sourcePerimeterSpacing=8;curved=1;endFill=0;exitX=0.005;exitY=0.221;exitDx=0;exitDy=0;exitPerimeter=0;" parent="1" source="00fC73_3xEAyOy2aGItD-16" target="00fC73_3xEAyOy2aGItD-23" edge="1">
                    <mxGeometry width="120" relative="1" as="geometry">
                        <mxPoint x="370.18000000000006" y="670.885" as="sourcePoint"/>
                        <mxPoint x="369" y="670.5034871303396" as="targetPoint"/>
                        <Array as="points"/>
                    </mxGeometry>
                </mxCell>
                <mxCell id="2" value="" style="rounded=0;whiteSpace=wrap;html=1;hachureGap=4;gradientColor=none;fillColor=default;" vertex="1" parent="1">
                    <mxGeometry x="-73.56" y="628" width="148" height="185" as="geometry"/>
                </mxCell>
                <mxCell id="3" value="" style="edgeStyle=none;orthogonalLoop=1;jettySize=auto;html=1;rounded=0;endArrow=none;startSize=14;endSize=14;targetPerimeterSpacing=8;curved=1;endFill=0;exitX=0.005;exitY=0.221;exitDx=0;exitDy=0;exitPerimeter=0;startArrow=none;" edge="1" parent="1">
                    <mxGeometry width="120" relative="1" as="geometry">
                        <mxPoint x="-73.25780000000009" y="668.7850000000001" as="sourcePoint"/>
                        <mxPoint x="74.44000000000005" y="668" as="targetPoint"/>
                        <Array as="points"/>
                    </mxGeometry>
                </mxCell>
                <mxCell id="4" value="Call" style="text;strokeColor=none;fillColor=none;html=1;align=center;verticalAlign=middle;whiteSpace=wrap;rounded=0;hachureGap=4;" vertex="1" parent="1">
                    <mxGeometry x="-71.56" y="630" width="144" height="37" as="geometry"/>
                </mxCell>
                <mxCell id="5" value="" style="edgeStyle=none;orthogonalLoop=1;jettySize=auto;html=1;rounded=0;endArrow=none;endFill=0;startSize=14;endSize=14;sourcePerimeterSpacing=8;targetPerimeterSpacing=8;curved=1;exitX=-0.003;exitY=0.581;exitDx=0;exitDy=0;exitPerimeter=0;entryX=0.996;entryY=0.581;entryDx=0;entryDy=0;entryPerimeter=0;" edge="1" parent="1" source="2" target="2">
                    <mxGeometry width="120" relative="1" as="geometry">
                        <mxPoint x="-73.56" y="742" as="sourcePoint"/>
                        <mxPoint x="46.440000000000055" y="742" as="targetPoint"/>
                        <Array as="points"/>
                    </mxGeometry>
                </mxCell>
                <mxCell id="6" value="" style="edgeStyle=none;orthogonalLoop=1;jettySize=auto;html=1;rounded=0;endArrow=none;startSize=14;endSize=14;curved=1;endFill=0;exitX=0.005;exitY=0.221;exitDx=0;exitDy=0;exitPerimeter=0;startArrow=none;" edge="1" parent="1" source="8">
                    <mxGeometry width="120" relative="1" as="geometry">
                        <mxPoint x="-72.81999999999994" y="668.885" as="sourcePoint"/>
                        <mxPoint x="-74" y="668.5034871303396" as="targetPoint"/>
                        <Array as="points"/>
                    </mxGeometry>
                </mxCell>
                <mxCell id="7" value="&lt;div style=&quot;&quot;&gt;&lt;font style=&quot;font-size: 10px;&quot;&gt;+AceptCall () : void&amp;nbsp;&lt;/font&gt;&lt;/div&gt;" style="text;html=1;strokeColor=none;fillColor=none;align=left;verticalAlign=middle;whiteSpace=wrap;rounded=0;" vertex="1" parent="1">
                    <mxGeometry x="-74" y="737" width="148.44" height="76" as="geometry"/>
                </mxCell>
                <mxCell id="8" value="Text" style="text;html=1;strokeColor=none;fillColor=none;align=center;verticalAlign=middle;whiteSpace=wrap;rounded=0;fontSize=10;" vertex="1" parent="1">
                    <mxGeometry x="-73.56" y="670" width="148.56" height="66" as="geometry"/>
                </mxCell>
                <mxCell id="9" value="" style="edgeStyle=none;orthogonalLoop=1;jettySize=auto;html=1;rounded=0;endArrow=none;startSize=14;endSize=14;sourcePerimeterSpacing=8;curved=1;endFill=0;exitX=0.005;exitY=0.221;exitDx=0;exitDy=0;exitPerimeter=0;" edge="1" parent="1" source="2" target="8">
                    <mxGeometry width="120" relative="1" as="geometry">
                        <mxPoint x="-72.81999999999994" y="668.885" as="sourcePoint"/>
                        <mxPoint x="-74" y="668.5034871303396" as="targetPoint"/>
                        <Array as="points"/>
                    </mxGeometry>
                </mxCell>
            </root>
        </mxGraphModel>
    </diagram>
</mxfile>